<svg xmlns="http://www.w3.org/2000/svg" xmlns:xlink="http://www.w3.org/1999/xlink" version="1.1" width="256" height="256" viewBox="0 0 256 256" xml:space="preserve">

<defs>
</defs>
<g style="stroke: none; stroke-width: 0; stroke-dasharray: none; stroke-linecap: butt; stroke-linejoin: miter; stroke-miterlimit: 10; fill: none; fill-rule: nonzero; opacity: 1;" transform="translate(1.4065934065934016 1.4065934065934016) scale(2.81 2.81)" >
	<path d="M 82.509 13.881 H 7.491 C 3.906 13.881 1 16.787 1 20.372 V 59.86 c 0 3.585 2.906 6.491 6.491 6.491 h 57.362 l 11.596 9.768 v -9.768 h 6.06 c 3.585 0 6.491 -2.906 6.491 -6.491 V 20.372 C 89 16.787 86.094 13.881 82.509 13.881 z" style="stroke: none; stroke-width: 1; stroke-dasharray: none; stroke-linecap: butt; stroke-linejoin: miter; stroke-miterlimit: 10; fill: rgb(125,234,94); fill-rule: nonzero; opacity: 1;" transform=" matrix(1 0 0 1 0 0) " stroke-linecap="round" />
	<path d="M 53.25 52.584 c -0.553 0 -1 -0.447 -1 -1 V 31.747 l -6.438 8.951 c -0.376 0.522 -1.248 0.522 -1.624 0 l -6.438 -8.951 v 19.837 c 0 0.553 -0.448 1 -1 1 s -1 -0.447 -1 -1 v -22.94 c 0 -0.434 0.28 -0.819 0.693 -0.952 c 0.412 -0.134 0.865 0.015 1.119 0.368 L 45 38.401 l 7.438 -10.342 c 0.254 -0.353 0.71 -0.501 1.118 -0.368 c 0.413 0.133 0.693 0.518 0.693 0.952 v 22.94 C 54.25 52.137 53.803 52.584 53.25 52.584 z" style="stroke: none; stroke-width: 1; stroke-dasharray: none; stroke-linecap: butt; stroke-linejoin: miter; stroke-miterlimit: 10; fill: rgb(0,0,0); fill-rule: nonzero; opacity: 1;" transform=" matrix(1 0 0 1 0 0) " stroke-linecap="round" />
	<path d="M 24.429 52.584 h -7.486 c -0.552 0 -1 -0.447 -1 -1 s 0.448 -1 1 -1 h 7.486 c 1.646 0 2.984 -1.339 2.984 -2.984 v -3.501 c 0 -1.646 -1.339 -2.984 -2.984 -2.984 h -4.168 c -2.749 0 -4.984 -2.236 -4.984 -4.984 v -3.501 c 0 -2.749 2.236 -4.984 4.984 -4.984 h 5.373 c 0.552 0 1 0.448 1 1 s -0.448 1 -1 1 h -5.373 c -1.646 0 -2.984 1.339 -2.984 2.984 v 3.501 c 0 1.646 1.339 2.984 2.984 2.984 h 4.168 c 2.749 0 4.984 2.236 4.984 4.984 V 47.6 C 29.413 50.348 27.177 52.584 24.429 52.584 z" style="stroke: none; stroke-width: 1; stroke-dasharray: none; stroke-linecap: butt; stroke-linejoin: miter; stroke-miterlimit: 10; fill: rgb(0,0,0); fill-rule: nonzero; opacity: 1;" transform=" matrix(1 0 0 1 0 0) " stroke-linecap="round" />
	<path d="M 69.739 52.584 h -7.485 c -0.553 0 -1 -0.447 -1 -1 s 0.447 -1 1 -1 h 7.485 c 1.646 0 2.984 -1.339 2.984 -2.984 v -3.501 c 0 -1.646 -1.339 -2.984 -2.984 -2.984 h -4.168 c -2.748 0 -4.984 -2.236 -4.984 -4.984 v -3.501 c 0 -2.749 2.236 -4.984 4.984 -4.984 h 5.373 c 0.553 0 1 0.448 1 1 s -0.447 1 -1 1 h -5.373 c -1.646 0 -2.984 1.339 -2.984 2.984 v 3.501 c 0 1.646 1.339 2.984 2.984 2.984 h 4.168 c 2.748 0 4.984 2.236 4.984 4.984 V 47.6 C 74.724 50.348 72.487 52.584 69.739 52.584 z" style="stroke: none; stroke-width: 1; stroke-dasharray: none; stroke-linecap: butt; stroke-linejoin: miter; stroke-miterlimit: 10; fill: rgb(0,0,0); fill-rule: nonzero; opacity: 1;" transform=" matrix(1 0 0 1 0 0) " stroke-linecap="round" />
	<path d="M 76.449 77.119 c -0.231 0 -0.46 -0.08 -0.645 -0.235 l -11.316 -9.533 H 7.491 C 3.36 67.351 0 63.99 0 59.86 V 20.372 c 0 -4.131 3.36 -7.491 7.491 -7.491 h 75.018 c 4.131 0 7.491 3.36 7.491 7.491 V 59.86 c 0 4.13 -3.36 7.49 -7.491 7.49 h -5.06 v 8.769 c 0 0.389 -0.226 0.742 -0.578 0.906 C 76.736 77.089 76.593 77.119 76.449 77.119 z M 7.491 14.881 C 4.463 14.881 2 17.344 2 20.372 V 59.86 c 0 3.027 2.463 5.49 5.491 5.49 h 57.362 c 0.235 0 0.464 0.083 0.645 0.235 l 9.951 8.383 v -7.618 c 0 -0.553 0.447 -1 1 -1 h 6.06 c 3.028 0 5.491 -2.463 5.491 -5.49 V 20.372 c 0 -3.028 -2.463 -5.491 -5.491 -5.491 H 7.491 z" style="stroke: none; stroke-width: 1; stroke-dasharray: none; stroke-linecap: butt; stroke-linejoin: miter; stroke-miterlimit: 10; fill: rgb(0,0,0); fill-rule: nonzero; opacity: 1;" transform=" matrix(1 0 0 1 0 0) " stroke-linecap="round" />
</g>
</svg>